<mxfile host="app.diagrams.net" modified="2023-10-11T04:35:54.817Z" agent="Mozilla/5.0 (Windows NT 10.0; Win64; x64) AppleWebKit/537.36 (KHTML, like Gecko) Chrome/117.0.0.0 Safari/537.36" version="22.0.4" etag="d4PJGTQBEftJqrIl07nJ" type="github">
  <diagram name="Halaman-1" id="BAAvwwJ80AANOU9zYk0c">
    <mxGraphModel>
      <root>
        <mxCell id="0" />
        <mxCell id="1" parent="0" />
      </root>
    </mxGraphModel>
  </diagram>
</mxfile>
